<svg id="Fill_Outline" height="512" viewBox="0 0 64 64" width="512" xmlns="http://www.w3.org/2000/svg"><g id="Color"><g><g><path d="m37 36.5h12c2.596 0 5.123.86 7.2 2.45 3.022 2.313 4.8 5.944 4.8 9.8v8.167c0 2.255-1.791 4.083-4 4.083h-32v-12.25c0-3.856 1.778-7.487 4.8-9.8 2.077-1.59 4.604-2.45 7.2-2.45z" fill="#f15574"/><path d="m53 51v4c-7.732 0-14-6.107-14-14v-4.5h-2c-2.596 0-5.123.86-7.2 2.45-3.022 2.314-4.8 5.944-4.8 9.8v12.25h30v-12c-1.105 0-2 .872-2 2z" fill="#ee2f56"/><path d="m55 52v4h-7v5h9c2.209 0 4-1.791 4-4v-5z" fill="#f15574"/><path d="m57 58h-9v3h9c2.209 0 4-1.791 4-4v-3c0 2.209-1.791 4-4 4z" fill="#ee2f56"/><path d="m44 55c-.64-.64-1.509-1-2.414-1h-1.586c-1.657 0-3 1.343-3 3v4h11v-5h-1.586c-.905 0-1.774-.36-2.414-1z" fill="#f6b98d"/><path d="m43.304 56.982c-1.376-1.183-3.355-1.352-4.91-.418l-1.394.836v3.6h11v-3h-1.951c-1.007 0-1.981-.361-2.745-1.018z" fill="#f3a268"/><path d="m50 8c-.688 0-1.325.19-1.891.495-1.646-2.123-4.214-3.495-7.109-3.495-4.971 0-9 4.029-9 9v7h22v-9c0-2.209-1.791-4-4-4z" fill="#656b76"/><path d="m51.153 12.883c-.632-1.581-2.443-2.331-4.007-1.66l-.947.406c-2.048.878-4.361.906-6.43.078-1.132-.453-2.039-1.337-2.519-2.458-.488-1.139-.455-2.337-.063-3.392-3.062 1.437-5.187 4.538-5.187 8.143v7h22l-.134-6.22c-1.188-.039-2.262-.77-2.713-1.897z" fill="#545a63"/><path d="m49.734 36.891c-.617-.249-1.137-.697-1.443-1.308-.191-.383-.291-.806-.291-1.235v-3.348h-10v3.348c0 .429-.1.852-.292 1.236-.305.61-.826 1.059-1.443 1.308l6.735 5.108z" fill="#f6b98d"/><path d="m38 34.348c0 .429-.1.852-.292 1.236-.305.61-.826 1.059-1.443 1.308l2.735 2.074v-3.203c.455.106.92.186 1.401.218 3.073.199 5.834-1.152 7.599-3.34v-1.641h-10z" fill="#f3a268"/><path d="m49 15c-3.777 1.889-8.223 1.889-12 0 0 1.657-1.343 3-3 3v6.692c0 4.794 3.617 8.979 8.401 9.289 5.242.339 9.599-3.812 9.599-8.981v-7c-1.657 0-3-1.343-3-3z" fill="#f9cdae"/><g fill="#f6b98d"><path d="m49 15c-3.777 1.889-8.223 1.889-12 0 0 1.657-1.343 3-3 3v6.692c0 4.794 3.617 8.979 8.401 9.289 3.505.227 6.607-1.559 8.283-4.31-1.522.935-3.338 1.436-5.283 1.31-4.784-.31-8.401-4.496-8.401-9.289v-3.692c3.777 1.889 8.223 1.889 12 0 0 1.657 1.343 3 3 3v-3c-1.657 0-3-1.343-3-3z"/><path d="m52 23v-4c0-1.105.895-2 2-2 1.105 0 2 .895 2 2 0 2.209-1.791 4-4 4z"/><path d="m34 23v-4c0-1.105-.895-2-2-2-1.105 0-2 .895-2 2 0 2.209 1.791 4 4 4z"/></g><path d="m54 19v-2c-1.105 0-2 .895-2 2v4c1.312 0 2.467-.641 3.196-1.617-.722-.548-1.196-1.407-1.196-2.383z" fill="#f3a268"/><path d="m32 19v-2c1.105 0 2 .895 2 2v4c-1.312 0-2.467-.641-3.196-1.617.722-.548 1.196-1.407 1.196-2.383z" fill="#f3a268"/></g><g><path d="m44.122 61h-21v-4h14.528c2.741 0 5.246 1.549 6.472 4z" fill="#b8bebf"/><path d="m32.122 61h-16.721c-1.907 0-3.548-1.346-3.922-3.216l-2.4-12c-.495-2.475 1.398-4.784 3.922-4.784h11.842c1.907 0 3.548 1.346 3.922 3.216z" fill="#e9f1f2"/><path d="m15.099 41.784c-.053-.265-.066-.526-.066-.784h-2.031c-2.524 0-4.417 2.309-3.922 4.784l2.4 12c.373 1.87 2.015 3.216 3.921 3.216h16.721l-.833-4.166c-7.982-1.004-14.578-6.989-16.19-15.05z" fill="#d0d8da"/><circle cx="19.963" cy="51" fill="#fd9" r="2"/><path d="m19.963 53c.544 0 1.036-.219 1.396-.571-1.012-.865-1.934-1.832-2.747-2.896-.397.365-.649.885-.649 1.466 0 1.106.895 2.001 2 2.001z" fill="#ffc857"/></g></g></g><g id="Outline_copy"><g fill="#323232"><path d="m42.396 42.797c.178.136.391.203.604.203s.426-.067.604-.203l6.81-5.194c1.875.245 3.646.967 5.178 2.141 2.76 2.113 4.408 5.48 4.408 9.006v8.167c0 1.7-1.346 3.083-3 3.083h-8v-3h6c.552 0 1-.447 1-1v-6c0-.553-.448-1-1-1s-1 .447-1 1v5h-7.586c-.645 0-1.251-.251-1.707-.707-.833-.834-1.941-1.293-3.121-1.293h-1.586c-1.858 0-3.411 1.279-3.858 3h-4l-2.396-11.98c-.466-2.33-2.528-4.02-4.903-4.02h-11.842c-1.504 0-2.914.667-3.867 1.83s-1.331 2.676-1.036 4.15l2.4 12c.466 2.33 2.528 4.02 4.903 4.02h12.599c.552 0 1-.447 1-1s-.448-1-1-1h-12.599c-1.425 0-2.662-1.015-2.942-2.412l-2.4-12c-.177-.885.05-1.792.622-2.489.572-.699 1.418-1.099 2.32-1.099h11.841c1.425 0 2.662 1.015 2.942 2.412l3.357 16.784c.094.467.505.804.981.804h24.878c2.757 0 5-2.28 5-5.083v-8.167c0-4.145-1.941-8.104-5.192-10.594-2.112-1.617-4.71-2.55-7.354-2.646-.112-.116-.202-.241-.269-.375-.121-.241-.185-.514-.185-.787v-1.352c.288-.217.569-.447.837-.698 2.01-1.884 3.163-4.544 3.163-7.298v-1.101c2.279-.465 4-2.484 4-4.899 0-1.654-1.346-3-3-3-.874 0-1.654.382-2.203.979-1.007-.103-1.797-.946-1.797-1.979 0-.347-.18-.669-.474-.851-.295-.183-.664-.198-.973-.044-3.477 1.738-7.629 1.738-11.105 0-.31-.154-.678-.139-.973.044-.295.182-.475.504-.475.851 0 1.033-.79 1.876-1.797 1.979-.327-.357-.738-.629-1.203-.795v-2.184c0-4.411 3.589-8 8-8 2.484 0 4.788 1.133 6.319 3.108.299.386.834.497 1.266.267.46-.249.936-.375 1.415-.375 1.654 0 3 1.346 3 3v1c0 .553.448 1 1 1s1-.447 1-1v-1c0-2.757-2.243-5-5-5-.546 0-1.084.093-1.607.277-1.897-2.091-4.55-3.277-7.393-3.277-5.514 0-10 4.486-10 10v2.184c-1.161.414-2 1.514-2 2.816 0 2.414 1.721 4.434 4 4.899v.792c0 3.36 1.573 6.368 4.011 8.256-.001.019-.011.034-.011.053v1.348c0 .273-.064.546-.187.789-.066.133-.156.258-.268.374-2.644.096-5.241 1.028-7.354 2.646-.438.336-.522.963-.186 1.402.197.257.494.392.795.392.212 0 .426-.067.607-.206 1.532-1.174 3.303-1.896 5.178-2.141zm11.604-24.797c.551 0 1 .448 1 1 0 1.304-.836 2.416-2 2.829v-2.829c0-.552.449-1 1-1zm-23 1c0-.552.449-1 1-1s1 .448 1 1v2.829c-1.164-.413-2-1.525-2-2.829zm4 5.691v-5.818c1.26-.325 2.281-1.251 2.739-2.452 3.37 1.316 7.151 1.316 10.521 0 .458 1.201 1.479 2.127 2.739 2.452v6.127c0 2.235-.899 4.309-2.531 5.839-1.63 1.528-3.766 2.29-6.004 2.144-4.185-.271-7.464-3.914-7.464-8.292zm8 16.054-5.055-3.835c.262-.267.494-.553.657-.878.26-.52.398-1.102.398-1.685v-.211c1.033.466 2.153.765 3.336.842.226.015.45.022.674.022 1.396 0 2.745-.293 3.99-.838v.186c0 .583.138 1.165.397 1.684.163.326.395.612.657.879zm-3 14.255h1.586c.645 0 1.251.251 1.707.707.833.834 1.941 1.293 3.121 1.293h.586v3h-2.309c-1.381-2.302-3.757-3.764-6.435-3.958.34-.618.99-1.042 1.744-1.042zm-7.458 3h5.108c1.778 0 3.421.738 4.582 2h-9.29z"/><path d="m45.707 20.707c.713-.713 1.873-.713 2.586 0 .195.195.451.293.707.293s.512-.098.707-.293c.391-.391.391-1.023 0-1.414-1.492-1.492-3.922-1.492-5.414 0-.391.391-.391 1.023 0 1.414s1.023.391 1.414 0z"/><circle cx="47" cy="22" r="1"/><path d="m40.293 20.707c.195.195.451.293.707.293s.512-.098.707-.293c.391-.391.391-1.023 0-1.414-1.492-1.492-3.922-1.492-5.414 0-.391.391-.391 1.023 0 1.414s1.023.391 1.414 0c.713-.713 1.873-.713 2.586 0z"/><circle cx="39" cy="22" r="1"/><path d="m45.445 28.168c-1.485.99-3.405.99-4.891 0-.46-.306-1.082-.183-1.387.277-.306.46-.182 1.08.277 1.387 1.08.72 2.317 1.079 3.555 1.079s2.475-.359 3.555-1.079c.459-.307.583-.927.277-1.387-.305-.46-.927-.583-1.386-.277z"/><path d="m41.293 25.707 1 1c.195.195.451.293.707.293s.512-.098.707-.293c.391-.391.391-1.023 0-1.414l-.475-.475.722-1.346c.261-.486.078-1.093-.409-1.354-.487-.263-1.093-.078-1.354.408l-1.073 2c-.208.39-.137.87.175 1.181z"/><path d="m16.963 51c0 1.654 1.346 3 3 3s3-1.346 3-3-1.346-3-3-3-3 1.346-3 3zm4 0c0 .552-.449 1-1 1s-1-.448-1-1 .449-1 1-1 1 .448 1 1z"/><path d="m3 20c.552 0 1-.447 1-1v-4c0-.553-.448-1-1-1s-1 .447-1 1v4c0 .553.448 1 1 1z"/><path d="m27 36c0-.553-.448-1-1-1h-23c-.552 0-1 .447-1 1s.448 1 1 1h23c.552 0 1-.447 1-1z"/><path d="m3 13h24c.552 0 1-.447 1-1s-.448-1-1-1h-24c-.552 0-1 .447-1 1s.448 1 1 1z"/><path d="m8 20c1.103 0 2-.897 2-2v-2c0-1.103-.897-2-2-2h-1c-1.103 0-2 .897-2 2v2c0 1.103.897 2 2 2zm-1-4h1l.001 2h-1.001z"/><path d="m25 19v-4c0-.553-.448-1-1-1s-1 .447-1 1v4c0 .553.448 1 1 1s1-.447 1-1z"/><path d="m28 15c0-.553-.448-1-1-1s-1 .447-1 1v4c0 .553.448 1 1 1s1-.447 1-1z"/><path d="m3 27c.552 0 1-.447 1-1v-4c0-.553-.448-1-1-1s-1 .447-1 1v4c0 .553.448 1 1 1z"/><path d="m5 22v4c0 .553.448 1 1 1s1-.447 1-1v-4c0-.553-.448-1-1-1s-1 .447-1 1z"/><path d="m13 23c0-1.103-.897-2-2-2h-1c-1.103 0-2 .897-2 2v2c0 1.103.897 2 2 2h1c1.103 0 2-.897 2-2zm-3 2v-2h1l.001 2z"/><path d="m13 15c0-.553-.448-1-1-1s-1 .447-1 1v4c0 .553.448 1 1 1s1-.447 1-1z"/><path d="m16 15c0-.553-.448-1-1-1s-1 .447-1 1v4c0 .553.448 1 1 1s1-.447 1-1z"/><path d="m22 16c0-1.103-.897-2-2-2h-1c-1.103 0-2 .897-2 2v2c0 1.103.897 2 2 2h1c1.103 0 2-.897 2-2zm-3 2v-2h1l.001 2z"/><path d="m16 22c0-.553-.448-1-1-1s-1 .447-1 1v4c0 .553.448 1 1 1s1-.447 1-1z"/><path d="m22 23c0-1.103-.897-2-2-2h-1c-1.103 0-2 .897-2 2v2c0 1.103.897 2 2 2h1c1.103 0 2-.897 2-2zm-3 2v-2h1l.001 2z"/><path d="m28 23c0-1.103-.897-2-2-2h-1c-1.103 0-2 .897-2 2v2c0 1.103.897 2 2 2h1c1.103 0 2-.897 2-2zm-3 2v-2h1l.001 2z"/><path d="m26 29v4c0 .553.448 1 1 1s1-.447 1-1v-4c0-.553-.448-1-1-1s-1 .447-1 1z"/><path d="m23 29v4c0 .553.448 1 1 1s1-.447 1-1v-4c0-.553-.448-1-1-1s-1 .447-1 1z"/><path d="m20 28h-1c-1.103 0-2 .897-2 2v2c0 1.103.897 2 2 2h1c1.103 0 2-.897 2-2v-2c0-1.103-.897-2-2-2zm0 4h-1v-2h1z"/><path d="m15 28c-.552 0-1 .447-1 1v4c0 .553.448 1 1 1s1-.447 1-1v-4c0-.553-.448-1-1-1z"/><path d="m10 34h1c1.103 0 2-.897 2-2v-2c0-1.103-.897-2-2-2h-1c-1.103 0-2 .897-2 2v2c0 1.103.897 2 2 2zm0-4h1v2h-1z"/><path d="m4 34h1c1.103 0 2-.897 2-2v-2c0-1.103-.897-2-2-2h-1c-1.103 0-2 .897-2 2v2c0 1.103.897 2 2 2zm0-4h1v2h-1z"/></g></g></svg>